<svg width="13" height="13" viewBox="0 0 13 13" fill="none" xmlns="http://www.w3.org/2000/svg">
<path d="M11.8046 6.97451C12.2367 6.54304 12.5664 6.01996 12.7691 5.44394C12.9718 4.86794 13.0423 4.25374 12.9756 3.64678C12.9088 3.03983 12.7064 2.45564 12.3834 1.93743C12.0603 1.41922 11.6248 0.980249 11.1092 0.65298C9.80294 -0.211114 8.05477 -0.217611 6.73552 0.63349C5.59174 1.36765 4.96136 2.51111 4.85089 3.69355C4.7664 4.55115 4.44146 5.35028 3.84358 5.948L3.82408 5.96749C3.07023 6.72113 3.07023 7.87109 3.77859 8.57276L4.42197 9.21596C4.76245 9.55613 5.22411 9.74721 5.70547 9.74721C6.18683 9.74721 6.64849 9.55613 6.98898 9.21596C7.61936 8.58576 8.4512 8.24142 9.35452 8.14396C10.2449 8.04651 11.1157 7.65669 11.8046 6.97451ZM2.77128 11.6068C2.94675 11.9707 2.88826 12.4125 2.58282 12.7113C2.45053 12.8456 2.28193 12.9383 2.09769 12.9781C1.91346 13.018 1.72159 13.0032 1.54564 12.9356C1.36969 12.868 1.2173 12.7505 1.10717 12.5976C0.997035 12.4446 0.933945 12.2629 0.925637 12.0746C0.737323 12.0663 0.555528 12.0032 0.402552 11.8931C0.249576 11.783 0.132072 11.6307 0.0644514 11.4548C-0.00316891 11.2789 -0.0179641 11.0871 0.0218805 10.9029C0.0617251 10.7187 0.154477 10.5501 0.288759 10.4179C0.587701 10.119 1.03612 10.0541 1.39355 10.2295L3.00524 8.65073C3.09622 8.77417 3.2002 8.9171 3.31718 9.03405L3.96056 9.67725C4.09703 9.80718 4.22701 9.91763 4.39597 10.0151L2.77128 11.6068Z" fill="#FFA600"/>
</svg>
