<svg width="15" height="11" viewBox="0 0 15 11" fill="none" xmlns="http://www.w3.org/2000/svg">
<path d="M6.40001 4.75H7.82223V6.91667H6.40001V4.75Z" fill="#FFA600"/>
<path d="M8.44445 7.08333C8.44445 7.19384 8.39763 7.29982 8.31428 7.37796C8.23093 7.4561 8.11788 7.5 8.00001 7.5H6.22223C6.10436 7.5 5.99131 7.4561 5.90796 7.37796C5.82461 7.29982 5.77779 7.19384 5.77779 7.08333V6.25H7.45058e-06V10C7.45058e-06 10.221 0.0936579 10.433 0.260357 10.5893C0.427056 10.7455 0.653148 10.8333 0.888896 10.8333H13.3333C13.5691 10.8333 13.7952 10.7455 13.9619 10.5893C14.1286 10.433 14.2222 10.221 14.2222 10V6.25H8.44445V7.08333Z" fill="#FFA600"/>
<path d="M14.0933 3.49167L12.2756 1.7875C12.1928 1.71052 12.081 1.66713 11.9645 1.66667H9.74223V0.854167C9.74825 0.63523 9.6621 0.422871 9.50241 0.263023C9.34272 0.103174 9.12232 0.00868754 8.8889 0H5.26223C5.14816 0.00420807 5.03615 0.029831 4.93283 0.0753518C4.82951 0.120873 4.73699 0.185366 4.66073 0.265012C4.58448 0.344659 4.52605 0.43784 4.4889 0.539038C4.45175 0.640236 4.43663 0.747394 4.44445 0.854167V1.66667H2.25779C2.19929 1.66635 2.14131 1.67686 2.08716 1.6976C2.03301 1.71833 1.98376 1.74888 1.94223 1.7875L0.128896 3.49167C0.0877046 3.5306 0.0551156 3.57677 0.032998 3.62754C0.0108804 3.6783 -0.000330746 3.73266 7.42857e-06 3.7875V5.41667H5.77779V4.58333C5.77779 4.47283 5.82461 4.36685 5.90796 4.28871C5.99131 4.21057 6.10436 4.16667 6.22223 4.16667H8.00001C8.11788 4.16667 8.23093 4.21057 8.31428 4.28871C8.39763 4.36685 8.44445 4.47283 8.44445 4.58333V5.41667H14.2222V3.78333C14.2217 3.67403 14.1754 3.56928 14.0933 3.49167ZM8.8889 1.66667H5.33334V0.833333H8.8889V1.66667Z" fill="#FFA600"/>
</svg>
