<svg width="17" height="12" viewBox="0 0 17 12" fill="none" xmlns="http://www.w3.org/2000/svg">
<path d="M4.68116 0.75H17V3.75H16.2301V4.5H11.6105C11.4063 4.5 11.2105 4.57902 11.0661 4.71967C10.9217 4.86032 10.8406 5.05109 10.8406 5.25V6C10.8406 6.39782 10.6783 6.77936 10.3896 7.06066C10.1008 7.34196 9.70912 7.5 9.30072 7.5H6.69837C6.4058 7.5 6.13632 7.665 6.00544 7.92L4.11911 11.5875C3.98822 11.8425 3.72645 12 3.43388 12H0.831522C0.831522 12 -1.47826 12 1.60145 7.5C1.60145 7.5 3.91123 4.5 0.831522 4.5V0.75H1.60145L1.98641 0H4.2962L4.68116 0.75ZM10.0707 6V5.25C10.0707 5.05109 9.98954 4.86032 9.84515 4.71967C9.70076 4.57902 9.50492 4.5 9.30072 4.5H8.5308C8.5308 4.5 7.76087 5.25 8.5308 6C8.1224 6 7.73073 5.84196 7.44196 5.56066C7.15318 5.27936 6.99094 4.89782 6.99094 4.5C6.78674 4.5 6.59091 4.57902 6.44652 4.71967C6.30213 4.86032 6.22101 5.05109 6.22101 5.25V6C6.22101 6.19891 6.30213 6.38968 6.44652 6.53033C6.59091 6.67098 6.78674 6.75 6.99094 6.75H9.30072C9.50492 6.75 9.70076 6.67098 9.84515 6.53033C9.98954 6.38968 10.0707 6.19891 10.0707 6Z" fill="#FFA600"/>
</svg>
