<svg width="11" height="21" viewBox="0 0 11 21" fill="none" xmlns="http://www.w3.org/2000/svg">
<path id="Vector" d="M3.78125 0H7.21875C7.79023 0 8.25 0.438867 8.25 0.984375V2.625H2.75V0.984375C2.75 0.438867 3.20977 0 3.78125 0ZM0 6.22207C0 5.58223 0.386719 4.9998 0.996875 4.725L2.04531 4.25742C2.51797 4.04824 3.03359 3.9375 3.55352 3.9375H7.44648C7.96641 3.9375 8.48203 4.04824 8.95469 4.25742L10.0031 4.725C10.609 4.9957 11 5.57812 11 6.22207C11 6.8127 10.6777 7.32949 10.1879 7.6207C10.682 7.98164 11 8.54766 11 9.1875C11 9.87246 10.6348 10.4754 10.0762 10.8281C10.6305 11.1809 11 11.7838 11 12.4688C11 13.1537 10.6348 13.7566 10.0762 14.1094C10.6305 14.4621 11 15.065 11 15.75C11 16.435 10.6348 17.0379 10.0762 17.3906C10.6305 17.7434 11 18.3463 11 19.0312C11 20.1182 10.0762 21 8.9375 21H2.0625C0.923828 21 0 20.1182 0 19.0312C0 18.3463 0.365234 17.7434 0.923828 17.3906C0.365234 17.0379 0 16.435 0 15.75C0 15.065 0.365234 14.4621 0.923828 14.1094C0.365234 13.7566 0 13.1537 0 12.4688C0 11.7838 0.365234 11.1809 0.923828 10.8281C0.365234 10.4754 0 9.87246 0 9.1875C0 8.54766 0.317969 7.98164 0.812109 7.6207C0.322266 7.32949 0 6.8127 0 6.22207ZM2.75 9.84375C2.75 10.2047 3.05937 10.5 3.4375 10.5H7.5625C7.94063 10.5 8.25 10.2047 8.25 9.84375C8.25 9.48281 7.94063 9.1875 7.5625 9.1875H3.4375C3.05937 9.1875 2.75 9.48281 2.75 9.84375ZM3.4375 14.4375C3.05937 14.4375 2.75 14.7328 2.75 15.0938C2.75 15.4547 3.05937 15.75 3.4375 15.75H7.5625C7.94063 15.75 8.25 15.4547 8.25 15.0938C8.25 14.7328 7.94063 14.4375 7.5625 14.4375H3.4375Z" fill="white" />
</svg>
