<svg width="20" height="18" viewBox="0 0 20 18" fill="none" xmlns="http://www.w3.org/2000/svg">
<path id="Vector" d="M1.87917 7.71429C1.20833 7.71429 0.666667 7.19196 0.666667 6.54509C0.666667 6.46875 0.675 6.39643 0.691667 6.32009C0.9125 5.47634 2.61667 0 10 0C17.3833 0 19.0875 5.47634 19.3083 6.32009C19.3292 6.39643 19.3333 6.46875 19.3333 6.54509C19.3333 7.19196 18.7917 7.71429 18.1208 7.71429H1.87917ZM5.33333 3.85714C5.33333 3.68665 5.2631 3.52313 5.13807 3.40257C5.01305 3.28202 4.84348 3.21429 4.66667 3.21429C4.48986 3.21429 4.32029 3.28202 4.19526 3.40257C4.07024 3.52313 4 3.68665 4 3.85714C4 4.02764 4.07024 4.19115 4.19526 4.31171C4.32029 4.43227 4.48986 4.5 4.66667 4.5C4.84348 4.5 5.01305 4.43227 5.13807 4.31171C5.2631 4.19115 5.33333 4.02764 5.33333 3.85714ZM15.3333 4.5C15.5101 4.5 15.6797 4.43227 15.8047 4.31171C15.9298 4.19115 16 4.02764 16 3.85714C16 3.68665 15.9298 3.52313 15.8047 3.40257C15.6797 3.28202 15.5101 3.21429 15.3333 3.21429C15.1565 3.21429 14.987 3.28202 14.8619 3.40257C14.7369 3.52313 14.6667 3.68665 14.6667 3.85714C14.6667 4.02764 14.7369 4.19115 14.8619 4.31171C14.987 4.43227 15.1565 4.5 15.3333 4.5ZM10.6667 2.57143C10.6667 2.40093 10.5964 2.23742 10.4714 2.11686C10.3464 1.9963 10.1768 1.92857 10 1.92857C9.82319 1.92857 9.65362 1.9963 9.5286 2.11686C9.40357 2.23742 9.33333 2.40093 9.33333 2.57143C9.33333 2.74192 9.40357 2.90544 9.5286 3.026C9.65362 3.14656 9.82319 3.21429 10 3.21429C10.1768 3.21429 10.3464 3.14656 10.4714 3.026C10.5964 2.90544 10.6667 2.74192 10.6667 2.57143ZM0 10.9286C0 9.86384 0.895833 9 2 9H18C19.1042 9 20 9.86384 20 10.9286C20 11.9933 19.1042 12.8571 18 12.8571H2C0.895833 12.8571 0 11.9933 0 10.9286ZM0.666667 14.7857C0.666667 14.4321 0.966667 14.1429 1.33333 14.1429H18.6667C19.0333 14.1429 19.3333 14.4321 19.3333 14.7857V15.4286C19.3333 16.8469 18.1375 18 16.6667 18H3.33333C1.8625 18 0.666667 16.8469 0.666667 15.4286V14.7857Z" />
</svg>
