<svg width="19" height="19" viewBox="0 0 19 19" fill="none" xmlns="http://www.w3.org/2000/svg">
<path id="Vector" d="M2.91769 0.185989C2.56517 -0.0886143 2.06422 -0.0552167 1.7451 0.260206L0.260803 1.74455C-0.0546094 2.05997 -0.088006 2.56093 0.182877 2.91717L3.15146 6.77646C3.31845 6.9954 3.58191 7.12528 3.8565 7.12528H5.86401L9.90871 11.1701C9.36323 12.2463 9.53763 13.597 10.4393 14.495L14.5954 18.6512C15.0592 19.115 15.8125 19.115 16.2763 18.6512L18.6512 16.2762C19.115 15.8124 19.115 15.0591 18.6512 14.5952L14.4952 10.4391C13.5972 9.54104 12.2465 9.36292 11.1704 9.90842L7.12566 5.86359V3.85973C7.12566 3.58142 6.99578 3.32166 6.77685 3.15467L2.91769 0.185989ZM0.739487 14.6991C0.268224 15.1704 0.00105154 15.8124 0.00105154 16.4803C0.00105154 17.8719 1.12911 19 2.52064 19C3.18857 19 3.83053 18.7328 4.30179 18.2615L8.67303 13.8902C8.3836 13.1146 8.33907 12.2722 8.53945 11.4744L6.24992 9.1848L0.739487 14.6991ZM19 5.34407C19 4.95443 18.9592 4.57592 18.8813 4.21226C18.7922 3.79665 18.2838 3.68903 17.9833 3.98961L15.6121 6.36084C15.5008 6.47217 15.3486 6.53525 15.1928 6.53525H13.0628C12.7363 6.53525 12.4691 6.26807 12.4691 5.94152V3.80778C12.4691 3.65192 12.5322 3.49978 12.6435 3.38845L15.0147 1.01722C15.3152 0.71664 15.2076 0.208254 14.792 0.119193C14.4247 0.0412654 14.0462 0.000446086 13.6565 0.000446086C10.7065 0.000446086 8.31309 2.39394 8.31309 5.34407V5.37376L11.4783 8.53911C12.8142 8.20143 14.2911 8.55767 15.3375 9.60413L15.9201 10.1867C17.7384 9.33323 19 7.48523 19 5.34407ZM2.07906 16.0313C2.07906 15.7951 2.17289 15.5686 2.33991 15.4016C2.50692 15.2345 2.73344 15.1407 2.96964 15.1407C3.20583 15.1407 3.43235 15.2345 3.59937 15.4016C3.76638 15.5686 3.86021 15.7951 3.86021 16.0313C3.86021 16.2675 3.76638 16.4941 3.59937 16.6611C3.43235 16.8281 3.20583 16.9219 2.96964 16.9219C2.73344 16.9219 2.50692 16.8281 2.33991 16.6611C2.17289 16.4941 2.07906 16.2675 2.07906 16.0313Z" fill="#A4A4A4" />
</svg>
