<svg id="Capa_1" enable-background="new 0 0 512 512" height="19" viewBox="0 0 512 512" width="19" xmlns="http://www.w3.org/2000/svg"><g><g><path d="m242.798 323.631h-78.072c-9.14 0-16.549-7.409-16.549-16.549s7.409-16.549 16.549-16.549h78.072c7.547 0 13.687-6.139 13.687-13.686v-34.459c0-9.14 7.409-16.549 16.549-16.549s16.55 7.41 16.55 16.549v34.459c0 25.797-20.988 46.784-46.786 46.784z" fill="#a69ca7"/></g><g><path d="m289.584 272.069v-29.681c0-9.14-7.409-16.549-16.55-16.549-9.14 0-16.549 7.41-16.549 16.549v29.681z" fill="#918291"/></g><path d="m490.391 178.954v50.094c0 9.14-7.409 16.549-16.549 16.549h-341.315v-66.644h357.864z" fill="#433f43"/><path d="m132.527 178.954h357.864v39.535h-357.864z" fill="#333133"/><g><path d="m277.239 218.756h-42.586c-5.278 0-9.817-3.738-10.828-8.919l-3.775-19.337h71.793l-3.775 19.337c-1.011 5.18-5.55 8.919-10.829 8.919z" fill="#282628"/></g><path d="m162.604 178.954v26.056c0 4.913 2.202 9.567 6.001 12.682l34.028 27.906-72.64 174.152c-1.932 4.631-6.745 7.375-11.714 6.679l-104.014-14.58c-11.09-1.555-17.467-13.444-12.626-23.543l57.815-120.611c6.414-13.382 4.157-29.307-5.723-40.38-8.359-9.367-12.978-21.483-12.978-34.037v-14.323h121.851z" fill="#554e55"/><path d="m169.578 218.489-.973-.798c-3.799-3.115-6.001-7.769-6.001-12.682v-26.055h-121.85v14.323c0 8.901 2.333 17.575 6.663 25.212z" fill="#433f43"/><path d="m109.66 252.73c-6.472-1.999-13.212 2.231-14.174 8.936-.994 6.929-3.044 13.784-6.185 20.336l-44.776 93.408c-1.614 3.366.512 7.329 4.209 7.848l53.052 7.437c2.485.348 4.891-1.024 5.857-3.339l45.338-108.696c2.513-6.025-.726-12.901-6.971-14.802-12.123-3.691-24.243-7.388-36.35-11.128z" fill="#ba7c65"/><path d="m152.977 278.66-45.334 108.696c-.971 2.317-3.376 3.685-5.858 3.343l-26.28-3.685c2.196-.077 4.181-1.434 5.053-3.509l46.956-112.558c2.218-5.329.099-11.298-4.601-14.144 7.69 2.361 15.391 4.711 23.092 7.05 6.244 1.899 9.488 8.783 6.972 14.807z" fill="#a96a53"/><path d="m512 123.55v55.918c0 6.088-4.935 11.033-11.033 11.033h-461.387c-6.088 0-11.023-4.945-11.023-11.033v-55.918c0-9.138 7.407-16.545 16.545-16.545h24.271c1.803 0 3.482-.948 4.419-2.493l8.221-13.701c1.999-3.317 5.584-5.347 9.457-5.347h44.081c3.873 0 7.459 2.029 9.457 5.347l8.231 13.701c.927 1.545 2.606 2.493 4.409 2.493h88.101l2.081 10.621c1.092 5.604 6.006 9.653 11.713 9.653h125.064c5.717 0 10.621-4.049 11.713-9.653l2.081-10.621h33.893c2.421 0 4.523-1.69 5.038-4.049l1.926-8.808c1.102-5.069 5.584-8.684 10.776-8.684h8.623c5.182 0 9.673 3.616 10.776 8.684l1.927 8.808c.515 2.359 2.617 4.049 5.037 4.049h19.058c9.138.001 16.545 7.408 16.545 16.545z" fill="#a69ca7"/><g><path d="m392.852 137.578h-141.552c-5.71 0-10.62-4.044-11.714-9.648l-4.084-20.919h173.148l-4.084 20.919c-1.094 5.603-6.004 9.648-11.714 9.648z" fill="#918291"/></g><path d="m472.247 107.01h23.202c9.146 0 16.549 7.403 16.549 16.549v55.904c0 6.101-4.943 11.033-11.033 11.033h-32.183c6.101 0 11.033-4.932 11.033-11.033v-55.903c.001-14.259-7.568-16.55-7.568-16.55z" fill="#918291"/><g><path d="m73.882 170.238c-4.267 0-7.726-3.459-7.726-7.726v-24.503c0-4.268 3.459-7.726 7.726-7.726s7.726 3.459 7.726 7.726v24.503c.001 4.268-3.459 7.726-7.726 7.726z" fill="#918291"/></g><g><path d="m103.204 170.238c-4.267 0-7.726-3.459-7.726-7.726v-24.503c0-4.268 3.459-7.726 7.726-7.726s7.726 3.459 7.726 7.726v24.503c.001 4.268-3.459 7.726-7.726 7.726z" fill="#918291"/></g><g><path d="m132.527 170.238c-4.267 0-7.726-3.459-7.726-7.726v-24.503c0-4.268 3.459-7.726 7.726-7.726s7.726 3.459 7.726 7.726v24.503c0 4.268-3.459 7.726-7.726 7.726z" fill="#918291"/></g><g><path d="m161.849 170.238c-4.267 0-7.726-3.459-7.726-7.726v-24.503c0-4.268 3.459-7.726 7.726-7.726s7.726 3.459 7.726 7.726v24.503c0 4.268-3.459 7.726-7.726 7.726z" fill="#918291"/></g><g><path d="m191.171 170.238c-4.267 0-7.726-3.459-7.726-7.726v-24.503c0-4.268 3.459-7.726 7.726-7.726s7.726 3.459 7.726 7.726v24.503c0 4.268-3.459 7.726-7.726 7.726z" fill="#918291"/></g><g><path d="m460.233 218.76c0 4.265-3.461 7.726-7.726 7.726h-95.797l-15.185 19.11h-19.738l25.136-31.647c1.473-1.844 3.698-2.915 6.057-2.915h99.526c4.266-.001 7.727 3.451 7.727 7.726z" fill="#282628"/></g><g id="XMLID_269_"><path d="m134.358 233.565c-.024 0-.046 0-.069 0l-.114-.001c-4.267-.038-7.696-3.527-7.658-7.795.037-4.243 3.489-7.658 7.724-7.658h.069l.114.001c4.267.038 7.696 3.527 7.658 7.795-.037 4.244-3.489 7.658-7.724 7.658z" fill="#282628"/></g></g></svg>